<svg width="600" height="400" xmlns="http://www.w3.org/2000/svg">
<rect width="100%" height="100%" fill="white" />
<line x1="50" y1="50" x2="50" y2="350" stroke="black" stroke-width="2" />
<line x1="50" y1="350" x2="550" y2="350" stroke="black" stroke-width="2" />
<text x="300.0" y="25.0" font-size="20" text-anchor="middle">DenseNet121 Validation Accuracy</text>
<text x="300.0" y="390" font-size="14" text-anchor="middle">Epoch</text>
<text x="15" y="200.0" font-size="14" transform="rotate(-90 15,200.0)" text-anchor="middle">Accuracy (%)</text>
<line x1="50" y1="350.0" x2="550" y2="350.0" stroke="#eee" stroke-width="1" />
<text x="45" y="355.0" font-size="12" text-anchor="end">70.0%</text>
<line x1="50" y1="290.0" x2="550" y2="290.0" stroke="#eee" stroke-width="1" />
<text x="45" y="295.0" font-size="12" text-anchor="end">71.7%</text>
<line x1="50" y1="230.0" x2="550" y2="230.0" stroke="#eee" stroke-width="1" />
<text x="45" y="235.0" font-size="12" text-anchor="end">73.5%</text>
<line x1="50" y1="170.0" x2="550" y2="170.0" stroke="#eee" stroke-width="1" />
<text x="45" y="175.0" font-size="12" text-anchor="end">75.2%</text>
<line x1="50" y1="110.0" x2="550" y2="110.0" stroke="#eee" stroke-width="1" />
<text x="45" y="115.0" font-size="12" text-anchor="end">77.0%</text>
<line x1="50" y1="50.0" x2="550" y2="50.0" stroke="#eee" stroke-width="1" />
<text x="45" y="55.0" font-size="12" text-anchor="end">78.7%</text>
<polyline points="50.0,144.93670886075952 300.0,119.04487917146147 550.0,170.82853855005757" fill="none" stroke="blue" stroke-width="2" />
<circle cx="50.0" cy="144.93670886075952" r="4" fill="red" />
<circle cx="300.0" cy="119.04487917146147" r="4" fill="red" />
<circle cx="550.0" cy="170.82853855005757" r="4" fill="red" />
</svg>